<?xml version="1.0" encoding="UTF-8"?>
<!DOCTYPE svg PUBLIC "-//W3C//DTD SVG 1.1//EN" "http://www.w3.org/Graphics/SVG/1.1/DTD/svg11.dtd">
<svg xmlns="http://www.w3.org/2000/svg" version="1.1" width="386px" height="384px" style="shape-rendering:geometricPrecision; text-rendering:geometricPrecision; image-rendering:optimizeQuality; fill-rule:evenodd; clip-rule:evenodd" xmlns:xlink="http://www.w3.org/1999/xlink">
<g><path style="opacity:0.199" fill="#cdd0d1" d="M 328.5,80.5 C 328.5,80.8333 328.5,81.1667 328.5,81.5C 241.833,81.5 155.167,81.5 68.5,81.5C 66.6536,81.2222 65.3202,81.8888 64.5,83.5C 65.4971,165.792 65.8305,248.126 65.5,330.5C 65.1667,330.5 64.8333,330.5 64.5,330.5C 64.6667,248.833 64.5,167.166 64,85.5C 62.7025,86.7836 61.5358,86.6169 60.5,85C 60.6654,83.1634 61.332,81.1634 62.5,79C 65.6967,78.0135 68.5301,78.5135 71,80.5C 156.71,80.4898 242.543,80.4898 328.5,80.5 Z"/></g>
<g><path style="opacity:1" fill="#111112" d="M 66.5,85.5 C 67.2389,85.369 67.9056,85.5357 68.5,86C 67.2309,88.1385 67.2309,90.3052 68.5,92.5C 70.1112,91.6798 70.7778,90.3464 70.5,88.5C 155.553,88.9973 240.553,89.8306 325.5,91C 325.777,97.8767 325.443,104.877 324.5,112C 325.174,177.943 325.84,243.609 326.5,309C 325.833,310.333 325.167,311.667 324.5,313C 325.886,316.873 325.72,320.706 324,324.5C 323.529,320.821 321.695,319.488 318.5,320.5C 319.855,321.675 319.688,322.675 318,323.5C 317.824,326.882 317.324,330.215 316.5,333.5C 316.798,252.954 316.465,172.288 315.5,91.5C 314.5,91.5 313.5,91.5 312.5,91.5C 312.5,93.5 312.5,95.5 312.5,97.5C 312.167,97.5 311.833,97.5 311.5,97.5C 309.088,95.838 306.254,94.838 303,94.5C 231.162,95.8125 159.496,95.8125 88,94.5C 87.3076,95.0253 86.8076,95.6919 86.5,96.5C 89.6417,97.1674 92.6417,97.834 95.5,98.5C 91.0293,97.9106 87.0293,98.5772 83.5,100.5C 83.5,176.5 83.5,252.5 83.5,328.5C 84.8333,328.5 86.1667,328.5 87.5,328.5C 160.5,328.5 233.5,328.5 306.5,328.5C 233.335,329.499 160.002,329.833 86.5,329.5C 86.6709,331.993 85.6709,333.826 83.5,335C 161.403,335.831 239.237,335.665 317,334.5C 317.925,335.047 318.758,335.713 319.5,336.5C 236.829,336.835 154.496,337.835 72.5,339.5C 70.3792,339.675 68.3792,339.341 66.5,338.5C 66.5,336.167 66.5,333.833 66.5,331.5C 66.5657,249.524 66.5657,167.524 66.5,85.5 Z"/></g>
<g><path style="opacity:1" fill="#fdfefd" d="M 84.5,100.5 C 159.833,100.5 235.167,100.5 310.5,100.5C 310.5,175.5 310.5,250.5 310.5,325.5C 235.5,325.5 160.5,325.5 85.5,325.5C 85.8168,321.298 85.4834,317.298 84.5,313.5C 84.5,242.5 84.5,171.5 84.5,100.5 Z"/></g>
<g><path style="opacity:1" fill="#676568" d="M 311.5,97.5 C 311.833,97.5 312.167,97.5 312.5,97.5C 312.5,173.833 312.5,250.167 312.5,326.5C 312.167,326.5 311.833,326.5 311.5,326.5C 311.5,250.833 311.5,175.167 311.5,99.5C 235.665,99.1674 159.998,99.5007 84.5,100.5C 84.1667,100.5 83.8333,100.5 83.5,100.5C 87.0293,98.5772 91.0293,97.9106 95.5,98.5C 167.669,98.8326 239.669,98.4992 311.5,97.5 Z"/></g>
<g><path style="opacity:1" fill="#060506" d="M 311.5,97.5 C 239.669,98.4992 167.669,98.8326 95.5,98.5C 92.6417,97.834 89.6417,97.1674 86.5,96.5C 86.8076,95.6919 87.3076,95.0253 88,94.5C 159.496,95.8125 231.162,95.8125 303,94.5C 306.254,94.838 309.088,95.838 311.5,97.5 Z"/></g>
<g><path style="opacity:1" fill="#fcfdf4" d="M 282.5,127.5 C 284.144,127.286 285.644,127.62 287,128.5C 286.886,136.785 286.386,144.618 285.5,152C 287.44,159.664 288.106,167.331 287.5,175C 286.812,177.81 286.312,180.31 286,182.5C 283.475,184.696 280.975,186.862 278.5,189C 278.833,189.333 279.167,189.667 279.5,190C 276.438,192.405 275.438,191.905 276.5,188.5C 274.579,187.359 272.579,187.192 270.5,188C 268.53,190.316 266.196,192.149 263.5,193.5C 262.359,194.425 262.359,195.259 263.5,196C 261.469,198.174 258.802,198.674 255.5,197.5C 251.117,197.35 247.283,198.683 244,201.5C 243.07,203.543 242.57,205.376 242.5,207C 237.325,208.387 232.658,210.72 228.5,214C 228.833,214.333 229.167,214.667 229.5,215C 226.725,216.439 224.225,218.272 222,220.5C 220.43,219.642 218.763,218.975 217,218.5C 205.953,225.325 194.453,226.158 182.5,221C 180.628,218.598 178.628,216.431 176.5,214.5C 181.388,215.947 185.721,218.447 189.5,222C 199.785,224.152 208.618,221.652 216,214.5C 216.333,215.167 216.667,215.833 217,216.5C 223.654,213.859 230.154,210.692 236.5,207C 240.041,204.354 242.708,201.02 244.5,197C 247.234,196.79 249.734,195.956 252,194.5C 252.333,194.833 252.667,195.167 253,195.5C 254.5,194 256,192.5 257.5,191C 259.5,190.667 261.5,190.333 263.5,190C 264.13,188.108 265.13,186.441 266.5,185C 270.984,183.257 275.317,181.257 279.5,179C 280.85,177.282 282.017,175.448 283,173.5C 283.19,167.584 283.69,161.751 284.5,156C 283.167,149.333 283.167,142.667 284.5,136C 281.833,134.333 281.833,132.667 284.5,131C 283.177,130.184 282.511,129.017 282.5,127.5 Z"/></g>
<g><path style="opacity:0.701" fill="#2a282b" d="M 68.5,81.5 C 67.1938,82.4674 66.5271,83.8007 66.5,85.5C 66.5657,167.524 66.5657,249.524 66.5,331.5C 65.8333,331.5 65.5,331.167 65.5,330.5C 65.8305,248.126 65.4971,165.792 64.5,83.5C 65.3202,81.8888 66.6536,81.2222 68.5,81.5 Z"/></g>
<g><path style="opacity:1" fill="#f3e59c" d="M 203.5,215.5 C 201.571,215.769 199.905,215.269 198.5,214C 202.305,213.466 205.971,212.466 209.5,211C 210.488,208.833 211.821,207 213.5,205.5C 219.237,205.567 223.237,203.067 225.5,198C 227.193,197.153 228.86,196.32 230.5,195.5C 234.064,194.577 237.731,194.244 241.5,194.5C 241.966,192.799 241.966,191.299 241.5,190C 244.362,186.537 248.029,184.537 252.5,184C 258.175,178.805 264.341,174.305 271,170.5C 273.003,168.275 272.503,166.608 269.5,165.5C 267.702,162.711 267.202,159.711 268,156.5C 272.845,153.903 274.845,149.903 274,144.5C 272.981,143.313 271.814,142.313 270.5,141.5C 267.774,144.936 264.608,147.936 261,150.5C 260.586,150.043 260.086,149.709 259.5,149.5C 253.285,150.199 247.285,151.532 241.5,153.5C 241.953,152.542 242.619,151.708 243.5,151C 252.54,148.648 260.54,144.482 267.5,138.5C 271.088,137.096 274.255,137.762 277,140.5C 278.324,146.343 277.324,151.676 274,156.5C 273.034,160.118 273.534,163.451 275.5,166.5C 274.846,168.115 274.346,169.782 274,171.5C 265.148,177.335 256.314,183.168 247.5,189C 245.457,190.708 243.79,192.708 242.5,195C 238.719,196.827 234.719,197.827 230.5,198C 229.5,199.667 228.5,201.333 227.5,203C 223.46,205.427 219.126,207.094 214.5,208C 211.535,211.486 207.869,213.986 203.5,215.5 Z"/></g>
<g><path style="opacity:1" fill="#bba568" d="M 135.5,141.5 C 129.886,139.044 124.219,136.71 118.5,134.5C 117.501,146.815 117.168,159.149 117.5,171.5C 119.199,171.34 120.866,171.506 122.5,172C 125.528,173.844 128.528,175.678 131.5,177.5C 132.551,178.222 133.218,179.222 133.5,180.5C 133.167,180.5 132.833,180.5 132.5,180.5C 130.046,178.94 127.38,177.94 124.5,177.5C 122.019,175.995 119.519,174.328 117,172.5C 116.167,158.821 116.334,145.154 117.5,131.5C 121.108,133.152 124.774,134.652 128.5,136C 131.266,137.371 133.599,139.204 135.5,141.5 Z"/></g>
<g><path style="opacity:1" fill="#fcfbec" d="M 211.5,164.5 C 209.954,166.649 208.288,168.816 206.5,171C 200.752,171.565 195.085,171.065 189.5,169.5C 187.394,168.103 185.727,166.27 184.5,164C 178.02,162.729 172.02,160.562 166.5,157.5C 166.719,156.325 166.386,155.325 165.5,154.5C 163.283,153.232 161.283,151.732 159.5,150C 151.321,146.33 142.654,141.997 133.5,137C 130.989,134.674 129.656,131.841 129.5,128.5C 125.064,128.21 120.73,128.71 116.5,130C 116.005,133.992 114.671,137.659 112.5,141C 113.583,151.464 113.749,161.964 113,172.5C 116.066,175.737 119.899,177.404 124.5,177.5C 127.38,177.94 130.046,178.94 132.5,180.5C 132.5,181.167 132.5,181.833 132.5,182.5C 126.676,180.959 120.676,179.459 114.5,178C 112.288,175.957 110.288,173.791 108.5,171.5C 108.923,168.892 109.923,166.558 111.5,164.5C 110.03,162.518 110.364,160.852 112.5,159.5C 110.522,155.747 109.188,151.414 108.5,146.5C 108.877,143.113 109.21,139.447 109.5,135.5C 110.496,135.414 111.329,135.748 112,136.5C 111.712,132.232 113.546,129.398 117.5,128C 121.833,127.333 126.167,127.333 130.5,128C 132.303,129.262 133.636,130.929 134.5,133C 138.721,134.602 142.388,136.935 145.5,140C 148.167,140.333 150.833,140.667 153.5,141C 159.632,144.234 165.632,147.734 171.5,151.5C 172.808,153.641 174.308,155.641 176,157.5C 176.667,156.833 177.333,156.167 178,155.5C 179.171,156.893 180.671,157.727 182.5,158C 182.167,158.333 181.833,158.667 181.5,159C 183.715,160.044 186.048,160.71 188.5,161C 190.813,168.484 195.813,171.15 203.5,169C 206.324,167.755 208.991,166.255 211.5,164.5 Z"/></g>
<g><path style="opacity:1" fill="#fbf7d4" d="M 246.5,194.5 C 251.821,189.052 258.154,184.885 265.5,182C 269.124,178.032 273.291,174.866 278,172.5C 278.758,160.499 279.091,148.499 279,136.5C 272.26,133.651 266.426,135.151 261.5,141C 253.256,144.272 245.256,147.938 237.5,152C 234.669,154.001 232.003,156.167 229.5,158.5C 230.927,155.236 233.261,152.736 236.5,151C 239.833,149.667 243.167,148.333 246.5,147C 247.255,144.867 248.588,143.2 250.5,142C 255.756,138.786 261.423,136.12 267.5,134C 268.167,133 268.833,132 269.5,131C 272.436,129.955 275.436,129.121 278.5,128.5C 279.485,130.772 280.319,133.105 281,135.5C 281.667,147.167 281.667,158.833 281,170.5C 280.036,174.468 277.869,177.635 274.5,180C 266.63,182.711 259.63,186.711 253.5,192C 251.132,192.856 248.798,193.69 246.5,194.5 Z"/></g>
<g><path style="opacity:1" fill="#f7e590" d="M 230.5,195.5 C 231.949,193.836 233.949,193.002 236.5,193C 237.329,191.184 238.163,189.351 239,187.5C 240.955,186.547 242.622,185.213 244,183.5C 244.333,183.833 244.667,184.167 245,184.5C 247.382,183.446 249.882,182.779 252.5,182.5C 252.343,181.127 252.51,179.793 253,178.5C 254.959,177.252 256.459,175.585 257.5,173.5C 257.023,172.522 256.357,171.689 255.5,171C 257.252,168.666 259.419,166.833 262,165.5C 261.102,162.158 260.602,158.825 260.5,155.5C 258.709,154.236 256.709,153.569 254.5,153.5C 251.5,154 248.5,154.5 245.5,155C 239.901,158.131 234.235,160.965 228.5,163.5C 232.422,159.69 236.755,156.357 241.5,153.5C 247.285,151.532 253.285,150.199 259.5,149.5C 260.086,149.709 260.586,150.043 261,150.5C 264.608,147.936 267.774,144.936 270.5,141.5C 271.814,142.313 272.981,143.313 274,144.5C 274.845,149.903 272.845,153.903 268,156.5C 267.202,159.711 267.702,162.711 269.5,165.5C 272.503,166.608 273.003,168.275 271,170.5C 264.341,174.305 258.175,178.805 252.5,184C 248.029,184.537 244.362,186.537 241.5,190C 241.966,191.299 241.966,192.799 241.5,194.5C 237.731,194.244 234.064,194.577 230.5,195.5 Z"/></g>
<g><path style="opacity:1" fill="#a98431" d="M 135.5,141.5 C 137.891,143.362 140.558,144.696 143.5,145.5C 147.577,149.386 151.91,153.053 156.5,156.5C 155.141,158.306 155.475,159.806 157.5,161C 160.817,161.498 164.15,161.665 167.5,161.5C 167.5,162.167 167.5,162.833 167.5,163.5C 163.766,163.677 160.099,163.344 156.5,162.5C 154.509,159.863 152.509,157.196 150.5,154.5C 146.842,152.958 143.175,152.624 139.5,153.5C 136.345,151.681 134.345,149.015 133.5,145.5C 130.603,145.681 127.77,145.348 125,144.5C 123.699,144.639 122.866,145.305 122.5,146.5C 121.345,153.321 121.179,160.321 122,167.5C 122.785,169.286 123.951,170.786 125.5,172C 129.254,173.296 132.587,175.13 135.5,177.5C 134.167,177.5 132.833,177.5 131.5,177.5C 128.528,175.678 125.528,173.844 122.5,172C 120.866,171.506 119.199,171.34 117.5,171.5C 117.168,159.149 117.501,146.815 118.5,134.5C 124.219,136.71 129.886,139.044 135.5,141.5 Z"/></g>
<g><path style="opacity:1" fill="#bd8d24" d="M 122.5,146.5 C 122.056,154.153 122.723,161.653 124.5,169C 129.321,169.884 133.821,171.384 138,173.5C 140.544,171.201 140.378,168.701 137.5,166C 138.833,165.333 139.833,164.333 140.5,163C 141.833,162.667 143.167,162.333 144.5,162C 143.692,161.692 143.025,161.192 142.5,160.5C 143.853,159.476 144.52,158.143 144.5,156.5C 141.966,156.741 140.3,155.741 139.5,153.5C 143.175,152.624 146.842,152.958 150.5,154.5C 152.509,157.196 154.509,159.863 156.5,162.5C 155.833,162.5 155.5,162.833 155.5,163.5C 151.725,160.467 149.892,161.134 150,165.5C 149.282,164.549 148.449,164.383 147.5,165C 148.517,166.049 148.684,167.216 148,168.5C 146.443,167.795 145.277,168.461 144.5,170.5C 145.813,172.518 145.147,173.685 142.5,174C 145.028,175.017 145.028,176.184 142.5,177.5C 142.709,178.086 143.043,178.586 143.5,179C 142.181,179.195 140.847,179.028 139.5,178.5C 138.292,177.766 136.959,177.433 135.5,177.5C 132.587,175.13 129.254,173.296 125.5,172C 123.951,170.786 122.785,169.286 122,167.5C 121.179,160.321 121.345,153.321 122.5,146.5 Z"/></g>
<g><path style="opacity:1" fill="#f6ecc5" d="M 211.5,164.5 C 212.11,163.609 212.443,162.609 212.5,161.5C 215.833,161.5 219.167,161.5 222.5,161.5C 222.167,162.167 221.833,162.833 221.5,163.5C 219.692,163.491 218.025,163.991 216.5,165C 209.375,173.434 200.708,176.268 190.5,173.5C 188.914,172.852 187.247,172.352 185.5,172C 182.94,169.597 180.273,167.43 177.5,165.5C 174.601,163.266 171.268,161.933 167.5,161.5C 166.386,160.115 165.386,158.615 164.5,157C 157.455,153.058 150.455,149.224 143.5,145.5C 140.558,144.696 137.891,143.362 135.5,141.5C 133.599,139.204 131.266,137.371 128.5,136C 124.774,134.652 121.108,133.152 117.5,131.5C 116.334,145.154 116.167,158.821 117,172.5C 119.519,174.328 122.019,175.995 124.5,177.5C 119.899,177.404 116.066,175.737 113,172.5C 113.749,161.964 113.583,151.464 112.5,141C 114.671,137.659 116.005,133.992 116.5,130C 120.73,128.71 125.064,128.21 129.5,128.5C 129.656,131.841 130.989,134.674 133.5,137C 142.654,141.997 151.321,146.33 159.5,150C 161.283,151.732 163.283,153.232 165.5,154.5C 166.386,155.325 166.719,156.325 166.5,157.5C 172.02,160.562 178.02,162.729 184.5,164C 185.727,166.27 187.394,168.103 189.5,169.5C 195.085,171.065 200.752,171.565 206.5,171C 208.288,168.816 209.954,166.649 211.5,164.5 Z"/></g>
<g><path style="opacity:1" fill="#c5a867" d="M 143.5,145.5 C 150.455,149.224 157.455,153.058 164.5,157C 165.386,158.615 166.386,160.115 167.5,161.5C 164.15,161.665 160.817,161.498 157.5,161C 155.475,159.806 155.141,158.306 156.5,156.5C 151.91,153.053 147.577,149.386 143.5,145.5 Z"/></g>
<g><path style="opacity:1" fill="#b58011" d="M 139.5,153.5 C 140.3,155.741 141.966,156.741 144.5,156.5C 144.52,158.143 143.853,159.476 142.5,160.5C 143.025,161.192 143.692,161.692 144.5,162C 143.167,162.333 141.833,162.667 140.5,163C 139.833,164.333 138.833,165.333 137.5,166C 140.378,168.701 140.544,171.201 138,173.5C 133.821,171.384 129.321,169.884 124.5,169C 122.723,161.653 122.056,154.153 122.5,146.5C 122.866,145.305 123.699,144.639 125,144.5C 127.77,145.348 130.603,145.681 133.5,145.5C 134.345,149.015 136.345,151.681 139.5,153.5 Z"/></g>
<g><path style="opacity:1" fill="#f5dd7c" d="M 230.5,195.5 C 228.86,196.32 227.193,197.153 225.5,198C 223.237,203.067 219.237,205.567 213.5,205.5C 213.5,205.167 213.5,204.833 213.5,204.5C 215.928,203.788 218.261,202.788 220.5,201.5C 222.389,197.978 224.722,194.811 227.5,192C 227.043,191.586 226.709,191.086 226.5,190.5C 229.504,189.987 231.838,188.487 233.5,186C 232.351,184.396 232.351,182.73 233.5,181C 233.095,180.055 232.428,179.388 231.5,179C 232.308,178.692 232.975,178.192 233.5,177.5C 232.359,176.575 232.359,175.741 233.5,175C 232.551,174.383 231.718,174.549 231,175.5C 229.648,173.304 229.148,171.138 229.5,169C 228.551,168.383 227.718,168.549 227,169.5C 226.184,168.177 225.017,167.511 223.5,167.5C 225.167,166.167 226.833,164.833 228.5,163.5C 234.235,160.965 239.901,158.131 245.5,155C 248.5,154.5 251.5,154 254.5,153.5C 256.709,153.569 258.709,154.236 260.5,155.5C 260.602,158.825 261.102,162.158 262,165.5C 259.419,166.833 257.252,168.666 255.5,171C 256.357,171.689 257.023,172.522 257.5,173.5C 256.459,175.585 254.959,177.252 253,178.5C 252.51,179.793 252.343,181.127 252.5,182.5C 249.882,182.779 247.382,183.446 245,184.5C 244.667,184.167 244.333,183.833 244,183.5C 242.622,185.213 240.955,186.547 239,187.5C 238.163,189.351 237.329,191.184 236.5,193C 233.949,193.002 231.949,193.836 230.5,195.5 Z"/></g>
<g><path style="opacity:1" fill="#e9d699" d="M 241.5,153.5 C 236.755,156.357 232.422,159.69 228.5,163.5C 218.999,164.827 211.332,169.327 205.5,177C 202.812,177.392 200.145,177.892 197.5,178.5C 194.568,177.553 192.235,175.887 190.5,173.5C 200.708,176.268 209.375,173.434 216.5,165C 218.025,163.991 219.692,163.491 221.5,163.5C 227.873,162.097 233.207,158.93 237.5,154C 238.793,153.51 240.127,153.343 241.5,153.5 Z"/></g>
<g><path style="opacity:1" fill="#ca9c2e" d="M 155.5,163.5 C 158.641,164.321 161.975,164.821 165.5,165C 166,165.5 166.5,166 167,166.5C 166.656,168.258 166.156,170.091 165.5,172C 166.763,173.991 168.097,175.991 169.5,178C 167.027,179.561 165.027,181.561 163.5,184C 160.972,183.895 158.638,184.062 156.5,184.5C 150.891,184.598 145.558,183.431 140.5,181C 139.748,180.329 139.414,179.496 139.5,178.5C 140.847,179.028 142.181,179.195 143.5,179C 143.043,178.586 142.709,178.086 142.5,177.5C 145.028,176.184 145.028,175.017 142.5,174C 145.147,173.685 145.813,172.518 144.5,170.5C 145.277,168.461 146.443,167.795 148,168.5C 148.684,167.216 148.517,166.049 147.5,165C 148.449,164.383 149.282,164.549 150,165.5C 149.892,161.134 151.725,160.467 155.5,163.5 Z"/></g>
<g><path style="opacity:1" fill="#d9bd6e" d="M 228.5,163.5 C 226.833,164.833 225.167,166.167 223.5,167.5C 223.047,168.458 222.381,169.292 221.5,170C 215.321,171.856 210.655,175.523 207.5,181C 205.942,181.21 204.609,181.71 203.5,182.5C 202.448,182.649 201.448,182.483 200.5,182C 199.167,181.333 199.167,180.667 200.5,180C 189.795,179.664 182.128,174.83 177.5,165.5C 180.273,167.43 182.94,169.597 185.5,172C 187.247,172.352 188.914,172.852 190.5,173.5C 192.235,175.887 194.568,177.553 197.5,178.5C 200.145,177.892 202.812,177.392 205.5,177C 211.332,169.327 218.999,164.827 228.5,163.5 Z"/></g>
<g><path style="opacity:1" fill="#d5ae45" d="M 156.5,162.5 C 160.099,163.344 163.766,163.677 167.5,163.5C 171.398,167.954 175.732,171.954 180.5,175.5C 184.825,178.037 189.158,180.37 193.5,182.5C 193.36,184.124 194.027,185.29 195.5,186C 194.216,186.684 193.049,186.517 192,185.5C 191.508,186.549 191.674,187.549 192.5,188.5C 190.51,188.841 188.51,189.174 186.5,189.5C 184.614,192.79 183.114,196.79 182,201.5C 180.708,200.209 179.542,200.209 178.5,201.5C 175.237,201.326 173.57,199.659 173.5,196.5C 171.202,195.69 168.868,194.856 166.5,194C 166.167,193 165.833,192 165.5,191C 162.06,189.386 159.06,187.22 156.5,184.5C 158.638,184.062 160.972,183.895 163.5,184C 165.027,181.561 167.027,179.561 169.5,178C 168.097,175.991 166.763,173.991 165.5,172C 166.156,170.091 166.656,168.258 167,166.5C 166.5,166 166,165.5 165.5,165C 161.975,164.821 158.641,164.321 155.5,163.5C 155.5,162.833 155.833,162.5 156.5,162.5 Z"/></g>
<g><path style="opacity:1" fill="#e1bd59" d="M 167.5,161.5 C 171.268,161.933 174.601,163.266 177.5,165.5C 182.128,174.83 189.795,179.664 200.5,180C 199.167,180.667 199.167,181.333 200.5,182C 201.448,182.483 202.448,182.649 203.5,182.5C 202.883,184.229 201.883,185.729 200.5,187C 202.807,188.828 202.474,190.494 199.5,192C 201.279,191.021 202.945,191.354 204.5,193C 203.181,196.063 203.847,198.73 206.5,201C 205.636,202.137 204.636,203.47 203.5,205C 204.044,205.717 204.711,206.217 205.5,206.5C 202.014,210.737 199.014,210.404 196.5,205.5C 195.833,205.833 195.167,206.167 194.5,206.5C 189.421,205.087 184.421,203.753 179.5,202.5C 179.5,201.833 179.167,201.5 178.5,201.5C 179.542,200.209 180.708,200.209 182,201.5C 183.114,196.79 184.614,192.79 186.5,189.5C 188.51,189.174 190.51,188.841 192.5,188.5C 191.674,187.549 191.508,186.549 192,185.5C 193.049,186.517 194.216,186.684 195.5,186C 194.027,185.29 193.36,184.124 193.5,182.5C 189.158,180.37 184.825,178.037 180.5,175.5C 175.732,171.954 171.398,167.954 167.5,163.5C 167.5,162.833 167.5,162.167 167.5,161.5 Z"/></g>
<g><path style="opacity:1" fill="#f3e8b3" d="M 246.5,194.5 C 235.305,200.262 224.305,206.262 213.5,212.5C 209.577,213.795 205.91,215.628 202.5,218C 198.595,218.751 194.929,218.251 191.5,216.5C 191.5,215.5 191.5,214.5 191.5,213.5C 183.27,211.385 175.937,207.718 169.5,202.5C 170.833,202.5 172.167,202.5 173.5,202.5C 178.181,206.34 183.515,208.84 189.5,210C 193.578,214.179 198.245,216.013 203.5,215.5C 207.869,213.986 211.535,211.486 214.5,208C 219.126,207.094 223.46,205.427 227.5,203C 228.5,201.333 229.5,199.667 230.5,198C 234.719,197.827 238.719,196.827 242.5,195C 243.79,192.708 245.457,190.708 247.5,189C 256.314,183.168 265.148,177.335 274,171.5C 274.346,169.782 274.846,168.115 275.5,166.5C 273.534,163.451 273.034,160.118 274,156.5C 277.324,151.676 278.324,146.343 277,140.5C 274.255,137.762 271.088,137.096 267.5,138.5C 260.54,144.482 252.54,148.648 243.5,151C 242.619,151.708 241.953,152.542 241.5,153.5C 240.127,153.343 238.793,153.51 237.5,154C 233.207,158.93 227.873,162.097 221.5,163.5C 221.833,162.833 222.167,162.167 222.5,161.5C 224.895,160.684 227.229,159.684 229.5,158.5C 232.003,156.167 234.669,154.001 237.5,152C 245.256,147.938 253.256,144.272 261.5,141C 266.426,135.151 272.26,133.651 279,136.5C 279.091,148.499 278.758,160.499 278,172.5C 273.291,174.866 269.124,178.032 265.5,182C 258.154,184.885 251.821,189.052 246.5,194.5 Z"/></g>
<g><path style="opacity:1" fill="#ebcd66" d="M 223.5,167.5 C 225.017,167.511 226.184,168.177 227,169.5C 227.718,168.549 228.551,168.383 229.5,169C 229.148,171.138 229.648,173.304 231,175.5C 231.718,174.549 232.551,174.383 233.5,175C 232.359,175.741 232.359,176.575 233.5,177.5C 232.975,178.192 232.308,178.692 231.5,179C 232.428,179.388 233.095,180.055 233.5,181C 232.351,182.73 232.351,184.396 233.5,186C 231.838,188.487 229.504,189.987 226.5,190.5C 226.709,191.086 227.043,191.586 227.5,192C 224.722,194.811 222.389,197.978 220.5,201.5C 218.261,202.788 215.928,203.788 213.5,204.5C 211.738,204.643 210.071,204.309 208.5,203.5C 207.452,204.548 206.452,205.548 205.5,206.5C 204.711,206.217 204.044,205.717 203.5,205C 204.636,203.47 205.636,202.137 206.5,201C 203.847,198.73 203.181,196.063 204.5,193C 202.945,191.354 201.279,191.021 199.5,192C 202.474,190.494 202.807,188.828 200.5,187C 201.883,185.729 202.883,184.229 203.5,182.5C 204.609,181.71 205.942,181.21 207.5,181C 210.655,175.523 215.321,171.856 221.5,170C 222.381,169.292 223.047,168.458 223.5,167.5 Z"/></g>
<g><path style="opacity:0.133" fill="#bcbaba" d="M 328.5,81.5 C 328.5,81.1667 328.5,80.8333 328.5,80.5C 329.833,124.162 330.5,168.162 330.5,212.5C 330.5,256.668 330.167,300.668 329.5,344.5C 329.5,343.167 329.5,341.833 329.5,340.5C 329.833,253.998 329.499,167.665 328.5,81.5 Z"/></g>
<g><path style="opacity:1" fill="#f8eecc" d="M 132.5,180.5 C 132.833,180.5 133.167,180.5 133.5,180.5C 145.24,188.365 157.24,195.698 169.5,202.5C 175.937,207.718 183.27,211.385 191.5,213.5C 191.5,214.5 191.5,215.5 191.5,216.5C 194.929,218.251 198.595,218.751 202.5,218C 205.91,215.628 209.577,213.795 213.5,212.5C 211.248,215.921 208.248,218.421 204.5,220C 197.389,219.868 190.389,218.534 183.5,216C 182.62,214.644 182.286,213.144 182.5,211.5C 178.147,209.551 173.48,208.051 168.5,207C 167.692,204.912 166.692,202.912 165.5,201C 163.372,200.345 161.372,199.511 159.5,198.5C 155.099,199.13 151.432,197.797 148.5,194.5C 147.833,194.833 147.167,195.167 146.5,195.5C 146.331,193.883 145.997,192.216 145.5,190.5C 141.149,187.806 136.816,185.14 132.5,182.5C 132.5,181.833 132.5,181.167 132.5,180.5 Z"/></g>
<g><path style="opacity:1" fill="#c2a24f" d="M 131.5,177.5 C 132.833,177.5 134.167,177.5 135.5,177.5C 136.959,177.433 138.292,177.766 139.5,178.5C 139.414,179.496 139.748,180.329 140.5,181C 145.558,183.431 150.891,184.598 156.5,184.5C 159.06,187.22 162.06,189.386 165.5,191C 165.833,192 166.167,193 166.5,194C 168.868,194.856 171.202,195.69 173.5,196.5C 173.57,199.659 175.237,201.326 178.5,201.5C 179.167,201.5 179.5,201.833 179.5,202.5C 177.5,202.5 175.5,202.5 173.5,202.5C 172.167,202.5 170.833,202.5 169.5,202.5C 157.24,195.698 145.24,188.365 133.5,180.5C 133.218,179.222 132.551,178.222 131.5,177.5 Z"/></g>
<g><path style="opacity:1" fill="#fcfbf4" d="M 109.5,135.5 C 109.21,139.447 108.877,143.113 108.5,146.5C 109.188,151.414 110.522,155.747 112.5,159.5C 110.364,160.852 110.03,162.518 111.5,164.5C 109.923,166.558 108.923,168.892 108.5,171.5C 110.288,173.791 112.288,175.957 114.5,178C 120.676,179.459 126.676,180.959 132.5,182.5C 136.816,185.14 141.149,187.806 145.5,190.5C 145.997,192.216 146.331,193.883 146.5,195.5C 147.167,195.167 147.833,194.833 148.5,194.5C 151.432,197.797 155.099,199.13 159.5,198.5C 160.75,201.006 161.416,203.673 161.5,206.5C 165.709,208.31 170.042,209.977 174.5,211.5C 175.425,212.357 176.092,213.357 176.5,214.5C 174.799,214.034 173.299,214.034 172,214.5C 168.898,212.382 165.398,211.048 161.5,210.5C 161.709,209.914 162.043,209.414 162.5,209C 160.899,208.727 159.399,208.227 158,207.5C 157.667,207.833 157.333,208.167 157,208.5C 155.667,207.167 154.333,205.833 153,204.5C 152.805,202.793 152.805,201.126 153,199.5C 151.155,197.65 149.155,197.317 147,198.5C 145.352,197.283 143.519,196.45 141.5,196C 137.459,195.827 133.459,195.327 129.5,194.5C 133.374,192.998 133.041,192.331 128.5,192.5C 128.5,193.5 128.5,194.5 128.5,195.5C 122.101,196.282 115.934,196.949 110,197.5C 109.779,194.057 108.779,193.724 107,196.5C 105.484,194.221 105.317,192.221 106.5,190.5C 109.214,190.746 111.88,191.08 114.5,191.5C 117.442,191.146 120.275,190.48 123,189.5C 123.333,190.167 123.667,190.833 124,191.5C 124.833,190 126,188.833 127.5,188C 125.833,187.667 124.167,187.333 122.5,187C 120.578,185.54 119.911,183.873 120.5,182C 118.112,181.697 115.945,180.863 114,179.5C 112.333,179.833 110.667,180.167 109,180.5C 105.651,179.259 104.818,177.092 106.5,174C 105.833,173.667 105.167,173.333 104.5,173C 106.655,168.955 107.988,164.622 108.5,160C 107.611,154.624 106.944,149.457 106.5,144.5C 106.676,140.996 107.676,137.996 109.5,135.5 Z"/></g>
<g><path style="opacity:1" fill="#fdfbe6" d="M 282.5,127.5 C 282.511,129.017 283.177,130.184 284.5,131C 281.833,132.667 281.833,134.333 284.5,136C 283.167,142.667 283.167,149.333 284.5,156C 283.69,161.751 283.19,167.584 283,173.5C 282.017,175.448 280.85,177.282 279.5,179C 275.317,181.257 270.984,183.257 266.5,185C 265.13,186.441 264.13,188.108 263.5,190C 261.5,190.333 259.5,190.667 257.5,191C 256,192.5 254.5,194 253,195.5C 252.667,195.167 252.333,194.833 252,194.5C 249.734,195.956 247.234,196.79 244.5,197C 242.708,201.02 240.041,204.354 236.5,207C 230.154,210.692 223.654,213.859 217,216.5C 216.667,215.833 216.333,215.167 216,214.5C 208.618,221.652 199.785,224.152 189.5,222C 185.721,218.447 181.388,215.947 176.5,214.5C 176.092,213.357 175.425,212.357 174.5,211.5C 170.042,209.977 165.709,208.31 161.5,206.5C 161.416,203.673 160.75,201.006 159.5,198.5C 161.372,199.511 163.372,200.345 165.5,201C 166.692,202.912 167.692,204.912 168.5,207C 173.48,208.051 178.147,209.551 182.5,211.5C 182.286,213.144 182.62,214.644 183.5,216C 190.389,218.534 197.389,219.868 204.5,220C 208.248,218.421 211.248,215.921 213.5,212.5C 224.305,206.262 235.305,200.262 246.5,194.5C 248.798,193.69 251.132,192.856 253.5,192C 259.63,186.711 266.63,182.711 274.5,180C 277.869,177.635 280.036,174.468 281,170.5C 281.667,158.833 281.667,147.167 281,135.5C 280.319,133.105 279.485,130.772 278.5,128.5C 275.436,129.121 272.436,129.955 269.5,131C 268.833,132 268.167,133 267.5,134C 261.423,136.12 255.756,138.786 250.5,142C 248.588,143.2 247.255,144.867 246.5,147C 243.167,148.333 239.833,149.667 236.5,151C 233.261,152.736 230.927,155.236 229.5,158.5C 227.229,159.684 224.895,160.684 222.5,161.5C 219.167,161.5 215.833,161.5 212.5,161.5C 215.937,160.055 219.603,159.055 223.5,158.5C 223.618,155.312 224.451,152.312 226,149.5C 234.767,151.691 241.267,148.857 245.5,141C 252.996,137.831 259.996,133.831 266.5,129C 271.754,127.729 277.087,127.229 282.5,127.5 Z"/></g>
<g><path style="opacity:1" fill="#e0c470" d="M 173.5,202.5 C 175.5,202.5 177.5,202.5 179.5,202.5C 184.421,203.753 189.421,205.087 194.5,206.5C 195.167,206.167 195.833,205.833 196.5,205.5C 199.014,210.404 202.014,210.737 205.5,206.5C 206.452,205.548 207.452,204.548 208.5,203.5C 210.071,204.309 211.738,204.643 213.5,204.5C 213.5,204.833 213.5,205.167 213.5,205.5C 211.821,207 210.488,208.833 209.5,211C 205.971,212.466 202.305,213.466 198.5,214C 199.905,215.269 201.571,215.769 203.5,215.5C 198.245,216.013 193.578,214.179 189.5,210C 183.515,208.84 178.181,206.34 173.5,202.5 Z"/></g>
<g><path style="opacity:1" fill="#83817f" d="M 278.5,216.5 C 267.531,223.321 256.531,230.154 245.5,237C 243.35,238.411 241.016,239.245 238.5,239.5C 248.736,233.037 259.069,226.537 269.5,220C 272.309,218.259 275.309,217.092 278.5,216.5 Z"/></g>
<g><path style="opacity:1" fill="#111111" d="M 119.5,218.5 C 129.567,225.131 139.9,231.298 150.5,237C 152.345,238.128 154.345,238.628 156.5,238.5C 156.5,257.5 156.5,276.5 156.5,295.5C 155.676,291.688 155.176,287.688 155,283.5C 154.501,287.152 154.335,290.818 154.5,294.5C 142.167,294.5 129.833,294.5 117.5,294.5C 116.843,268.811 117.509,243.478 119.5,218.5 Z"/></g>
<g><path style="opacity:1" fill="#121212" d="M 278.5,216.5 C 279.498,242.661 279.831,268.995 279.5,295.5C 265.588,296.121 251.921,295.454 238.5,293.5C 238.5,275.5 238.5,257.5 238.5,239.5C 241.016,239.245 243.35,238.411 245.5,237C 256.531,230.154 267.531,223.321 278.5,216.5 Z"/></g>
<g><path style="opacity:1" fill="#8c8c8b" d="M 119.5,218.5 C 119.5,218.167 119.5,217.833 119.5,217.5C 132.815,222.822 145.148,229.822 156.5,238.5C 154.345,238.628 152.345,238.128 150.5,237C 139.9,231.298 129.567,225.131 119.5,218.5 Z"/></g>
<g><path style="opacity:1" fill="#cccbcd" d="M 119.5,217.5 C 118.5,217.5 117.5,217.5 116.5,217.5C 116.5,243.5 116.5,269.5 116.5,295.5C 115.811,270.151 115.144,244.651 114.5,219C 115.583,215.43 117.25,214.93 119.5,217.5 Z"/></g>
<g><path style="opacity:1" fill="#414041" d="M 119.5,217.5 C 119.5,217.833 119.5,218.167 119.5,218.5C 117.509,243.478 116.843,268.811 117.5,294.5C 129.833,294.5 142.167,294.5 154.5,294.5C 154.335,290.818 154.501,287.152 155,283.5C 155.176,287.688 155.676,291.688 156.5,295.5C 143.265,296.821 129.931,296.821 116.5,295.5C 116.5,269.5 116.5,243.5 116.5,217.5C 117.5,217.5 118.5,217.5 119.5,217.5 Z"/></g>
<g><path style="opacity:1" fill="#a6a6a7" d="M 278.5,216.5 C 278.56,215.957 278.893,215.624 279.5,215.5C 280.829,242.33 280.829,268.997 279.5,295.5C 279.831,268.995 279.498,242.661 278.5,216.5 Z"/></g>
<g><path style="opacity:1" fill="#5b5a59" d="M 238.5,293.5 C 251.921,295.454 265.588,296.121 279.5,295.5C 266.01,296.496 252.344,296.829 238.5,296.5C 238.5,295.5 238.5,294.5 238.5,293.5 Z"/></g>
<g><path style="opacity:1" fill="#090809" d="M 68.5,81.5 C 155.167,81.5 241.833,81.5 328.5,81.5C 329.499,167.665 329.833,253.998 329.5,340.5C 328.566,341.568 328.232,342.901 328.5,344.5C 241.167,344.5 153.833,344.5 66.5,344.5C 66.5,343.167 66.5,341.833 66.5,340.5C 108.152,341.15 149.818,341.483 191.5,341.5C 236.514,341.622 281.514,341.122 326.5,340C 241.834,339.5 157.167,339.333 72.5,339.5C 154.496,337.835 236.829,336.835 319.5,336.5C 318.758,335.713 317.925,335.047 317,334.5C 239.237,335.665 161.403,335.831 83.5,335C 85.6709,333.826 86.6709,331.993 86.5,329.5C 160.002,329.833 233.335,329.499 306.5,328.5C 309.082,328.975 311.082,328.308 312.5,326.5C 312.5,250.167 312.5,173.833 312.5,97.5C 312.5,95.5 312.5,93.5 312.5,91.5C 313.5,91.5 314.5,91.5 315.5,91.5C 316.465,172.288 316.798,252.954 316.5,333.5C 317.324,330.215 317.824,326.882 318,323.5C 319.688,322.675 319.855,321.675 318.5,320.5C 321.695,319.488 323.529,320.821 324,324.5C 325.72,320.706 325.886,316.873 324.5,313C 325.167,311.667 325.833,310.333 326.5,309C 325.84,243.609 325.174,177.943 324.5,112C 325.443,104.877 325.777,97.8767 325.5,91C 240.553,89.8306 155.553,88.9973 70.5,88.5C 70.7778,90.3464 70.1112,91.6798 68.5,92.5C 67.2309,90.3052 67.2309,88.1385 68.5,86C 67.9056,85.5357 67.2389,85.369 66.5,85.5C 66.5271,83.8007 67.1938,82.4674 68.5,81.5 Z"/></g>
<g><path style="opacity:1" fill="#121212" d="M 72.5,85.5 C 156.503,85.1667 240.503,85.5 324.5,86.5C 239.835,87.6667 155.169,87.8333 70.5,87C 71.4158,86.7216 72.0825,86.2216 72.5,85.5 Z"/></g>
<g><path style="opacity:1" fill="#dbdbdc" d="M 84.5,100.5 C 159.998,99.5007 235.665,99.1674 311.5,99.5C 311.5,175.167 311.5,250.833 311.5,326.5C 235.833,326.5 160.167,326.5 84.5,326.5C 84.5,322.167 84.5,317.833 84.5,313.5C 85.4834,317.298 85.8168,321.298 85.5,325.5C 160.5,325.5 235.5,325.5 310.5,325.5C 310.5,250.5 310.5,175.5 310.5,100.5C 235.167,100.5 159.833,100.5 84.5,100.5 Z"/></g>
<g><path style="opacity:1" fill="#868787" d="M 83.5,100.5 C 83.8333,100.5 84.1667,100.5 84.5,100.5C 84.5,171.5 84.5,242.5 84.5,313.5C 84.5,317.833 84.5,322.167 84.5,326.5C 160.167,326.5 235.833,326.5 311.5,326.5C 236.833,327.167 162.167,327.833 87.5,328.5C 86.1667,328.5 84.8333,328.5 83.5,328.5C 83.5,252.5 83.5,176.5 83.5,100.5 Z"/></g>
<g><path style="opacity:1" fill="#505050" d="M 311.5,326.5 C 311.833,326.5 312.167,326.5 312.5,326.5C 311.082,328.308 309.082,328.975 306.5,328.5C 233.5,328.5 160.5,328.5 87.5,328.5C 162.167,327.833 236.833,327.167 311.5,326.5 Z"/></g>
<g><path style="opacity:0.165" fill="#818080" d="M 64.5,330.5 C 64.8333,330.5 65.1667,330.5 65.5,330.5C 65.5,331.167 65.8333,331.5 66.5,331.5C 66.5,333.833 66.5,336.167 66.5,338.5C 66.5,339.167 66.5,339.833 66.5,340.5C 66.5,341.833 66.5,343.167 66.5,344.5C 64.5636,340.285 63.8969,335.619 64.5,330.5 Z"/></g>
<g><path style="opacity:1" fill="#1d1d1d" d="M 66.5,338.5 C 68.3792,339.341 70.3792,339.675 72.5,339.5C 157.167,339.333 241.834,339.5 326.5,340C 281.514,341.122 236.514,341.622 191.5,341.5C 149.818,341.483 108.152,341.15 66.5,340.5C 66.5,339.833 66.5,339.167 66.5,338.5 Z"/></g>
<g><path style="opacity:0.191" fill="#494a4d" d="M 329.5,340.5 C 329.5,341.833 329.5,343.167 329.5,344.5C 241.833,345.833 154.167,345.833 66.5,344.5C 153.833,344.5 241.167,344.5 328.5,344.5C 328.232,342.901 328.566,341.568 329.5,340.5 Z"/></g>
</svg>
